<svg width="56" height="56" viewBox="0 0 56 56" fill="none" xmlns="http://www.w3.org/2000/svg">
<rect width="56" height="56" rx="28" fill="#F6F6FD"/>
<path d="M27.9998 30.8931C25.1598 30.8931 22.8398 28.5864 22.8398 25.7331C22.8398 22.8798 25.1598 20.5864 27.9998 20.5864C30.8398 20.5864 33.1598 22.8931 33.1598 25.7464C33.1598 28.5998 30.8398 30.8931 27.9998 30.8931ZM27.9998 22.5864C26.2665 22.5864 24.8398 23.9998 24.8398 25.7464C24.8398 27.4931 26.2532 28.9064 27.9998 28.9064C29.7465 28.9064 31.1598 27.4931 31.1598 25.7464C31.1598 23.9998 29.7332 22.5864 27.9998 22.5864Z" fill="#171717"/>
<path d="M28.0002 42.3465C26.0269 42.3465 24.0402 41.5998 22.4936 40.1198C18.5602 36.3332 14.2136 30.2932 15.8536 23.1065C17.3336 16.5865 23.0269 13.6665 28.0002 13.6665C28.0002 13.6665 28.0002 13.6665 28.0136 13.6665C32.9869 13.6665 38.6802 16.5865 40.1602 23.1198C41.7869 30.3065 37.4402 36.3332 33.5069 40.1198C31.9602 41.5998 29.9736 42.3465 28.0002 42.3465ZM28.0002 15.6665C24.1202 15.6665 19.1336 17.7332 17.8136 23.5465C16.3736 29.8265 20.3202 35.2398 23.8936 38.6665C26.2002 40.8932 29.8136 40.8932 32.1202 38.6665C35.6802 35.2398 39.6269 29.8265 38.2136 23.5465C36.8802 17.7332 31.8802 15.6665 28.0002 15.6665Z" fill="#171717"/>
</svg>
