<svg width="20" height="20" viewBox="0 0 20 20" fill="none" xmlns="http://www.w3.org/2000/svg">
<path d="M14.6658 4.42474L9.95742 1.89141C9.45742 1.62474 8.86576 1.62474 8.36576 1.89141L3.66576 4.42474C3.32409 4.61641 3.10742 4.98307 3.10742 5.38307C3.10742 5.79141 3.31576 6.15807 3.66576 6.34141L8.37409 8.87474C8.62409 9.00807 8.89909 9.07474 9.16576 9.07474C9.43242 9.07474 9.71576 9.00807 9.95742 8.87474L14.6658 6.34141C15.0074 6.15807 15.2241 5.79141 15.2241 5.38307C15.2241 4.98307 15.0074 4.61641 14.6658 4.42474Z" fill="#52B788"/>
<path d="M7.59935 9.75816L3.22435 7.57483C2.88268 7.39983 2.49935 7.42483 2.17435 7.6165C1.85768 7.8165 1.66602 8.15816 1.66602 8.53316V12.6665C1.66602 13.3832 2.06602 14.0248 2.70768 14.3498L7.08268 16.5332C7.23268 16.6082 7.39935 16.6498 7.56601 16.6498C7.75768 16.6498 7.95768 16.5915 8.13268 16.4915C8.44935 16.2915 8.64102 15.9498 8.64102 15.5748V11.4415C8.63268 10.7248 8.23268 10.0832 7.59935 9.75816Z" fill="#52B788"/>
<path d="M16.6659 8.53316V10.5832C16.2659 10.4665 15.8409 10.4165 15.4159 10.4165C14.2826 10.4165 13.1742 10.8082 12.2992 11.5082C11.0992 12.4498 10.4159 13.8748 10.4159 15.4165C10.4159 15.8248 10.4659 16.2332 10.5742 16.6248C10.4492 16.6082 10.3242 16.5582 10.2076 16.4832C9.89089 16.2915 9.69922 15.9498 9.69922 15.5748V11.4415C9.69922 10.7248 10.0992 10.0832 10.7326 9.75816L15.1076 7.57483C15.4492 7.39983 15.8326 7.42483 16.1576 7.6165C16.4742 7.8165 16.6659 8.15816 16.6659 8.53316Z" fill="#52B788"/>
<path d="M18.316 13.0586C17.6327 12.2169 16.591 11.6836 15.416 11.6836C14.5327 11.6836 13.716 11.9919 13.0743 12.5086C12.2077 13.1919 11.666 14.2503 11.666 15.4336C11.666 16.1336 11.866 16.8003 12.2077 17.3669C12.4327 17.7419 12.716 18.0669 13.0493 18.3336H13.0577C13.6993 18.8669 14.5243 19.1836 15.416 19.1836C16.366 19.1836 17.2243 18.8336 17.8827 18.2503C18.1743 18.0003 18.4243 17.7003 18.6243 17.3669C18.966 16.8003 19.166 16.1336 19.166 15.4336C19.166 14.5336 18.8493 13.7003 18.316 13.0586ZM17.2993 14.9669L15.2993 16.8169C15.1827 16.9253 15.0243 16.9836 14.8743 16.9836C14.716 16.9836 14.5577 16.9253 14.4327 16.8003L13.5077 15.8753C13.266 15.6336 13.266 15.2336 13.5077 14.9919C13.7493 14.7503 14.1493 14.7503 14.391 14.9919L14.891 15.4919L16.4493 14.0503C16.6993 13.8169 17.0993 13.8336 17.3327 14.0836C17.5743 14.3419 17.5577 14.7336 17.2993 14.9669Z" fill="#52B788"/>
</svg>
