<svg width="52" height="52" viewBox="0 0 52 52" fill="none" xmlns="http://www.w3.org/2000/svg">
<rect width="52" height="52" rx="26" fill="#EA241F" fill-opacity="0.05"/>
<path d="M37.9989 18.9731C37.9722 18.9731 37.9322 18.9731 37.8922 18.9731C30.8389 18.2665 23.7989 17.9998 16.8256 18.7065L14.1056 18.9731C13.5456 19.0265 13.0522 18.6265 12.9989 18.0665C12.9456 17.5065 13.3456 17.0265 13.8922 16.9731L16.6122 16.7065C23.7056 15.9865 30.8922 16.2665 38.0922 16.9731C38.6389 17.0265 39.0389 17.5198 38.9856 18.0665C38.9456 18.5865 38.5056 18.9731 37.9989 18.9731Z" fill="#FF445B"/>
<path d="M21.333 17.627C21.2797 17.627 21.2264 17.627 21.1597 17.6137C20.6264 17.5203 20.253 17.0003 20.3464 16.467L20.6397 14.7203C20.853 13.4403 21.1464 11.667 24.253 11.667H27.7464C30.8664 11.667 31.1597 13.507 31.3597 14.7337L31.653 16.467C31.7464 17.0137 31.373 17.5337 30.8397 17.6137C30.293 17.707 29.773 17.3337 29.693 16.8003L29.3997 15.067C29.213 13.907 29.173 13.6803 27.7597 13.6803H24.2664C22.853 13.6803 22.8264 13.867 22.6264 15.0537L22.3197 16.787C22.2397 17.2803 21.813 17.627 21.333 17.627Z" fill="#FF445B"/>
<path d="M30.2792 40.3334H21.7192C17.0659 40.3334 16.8792 37.7601 16.7325 35.6801L15.8659 22.2534C15.8259 21.7068 16.2525 21.2268 16.7992 21.1868C17.3592 21.1601 17.8259 21.5734 17.8659 22.1201L18.7325 35.5468C18.8792 37.5734 18.9325 38.3334 21.7192 38.3334H30.2792C33.0792 38.3334 33.1325 37.5734 33.2659 35.5468L34.1325 22.1201C34.1725 21.5734 34.6525 21.1601 35.1992 21.1868C35.7459 21.2268 36.1725 21.6934 36.1325 22.2534L35.2659 35.6801C35.1192 37.7601 34.9325 40.3334 30.2792 40.3334Z" fill="#FF445B"/>
<path d="M28.2134 33H23.7734C23.2268 33 22.7734 32.5467 22.7734 32C22.7734 31.4533 23.2268 31 23.7734 31H28.2134C28.7601 31 29.2134 31.4533 29.2134 32C29.2134 32.5467 28.7601 33 28.2134 33Z" fill="#FF445B"/>
<path d="M29.3346 27.667H22.668C22.1213 27.667 21.668 27.2137 21.668 26.667C21.668 26.1203 22.1213 25.667 22.668 25.667H29.3346C29.8813 25.667 30.3346 26.1203 30.3346 26.667C30.3346 27.2137 29.8813 27.667 29.3346 27.667Z" fill="#FF445B"/>
</svg>
