<svg width="24" height="20" viewBox="0 0 24 20" fill="none" xmlns="http://www.w3.org/2000/svg">
<path d="M12.9978 12.2407H11.9978C11.5878 12.2407 11.2478 11.9637 11.2478 11.6296C11.2478 11.2955 11.5878 11.0185 11.9978 11.0185H12.9978C13.6878 11.0185 14.2478 10.5622 14.2478 9.99998V2.46294H5.99782C4.81782 2.46294 3.7378 2.98441 3.1578 3.82367C2.9578 4.117 2.49784 4.22296 2.13784 4.06C1.77784 3.89704 1.6478 3.52221 1.8478 3.22887C2.6878 2.00665 4.27782 1.24072 5.99782 1.24072H14.9978C15.4078 1.24072 15.7478 1.51776 15.7478 1.85183V9.99998C15.7478 11.2385 14.5178 12.2407 12.9978 12.2407Z" fill="#BDC1DF"/>
<path d="M19.0039 17.1295H18.0039C17.5939 17.1295 17.2539 16.8525 17.2539 16.5184C17.2539 15.9562 16.6939 15.4999 16.0039 15.4999C15.3139 15.4999 14.7539 15.9562 14.7539 16.5184C14.7539 16.8525 14.4139 17.1295 14.0039 17.1295H10.0039C9.5939 17.1295 9.2539 16.8525 9.2539 16.5184C9.2539 15.9562 8.6939 15.4999 8.0039 15.4999C7.3139 15.4999 6.7539 15.9562 6.7539 16.5184C6.7539 16.8525 6.41391 17.1295 6.00391 17.1295H5.00391C2.93391 17.1295 1.25391 15.7606 1.25391 14.0739C1.25391 13.7399 1.59391 13.4628 2.00391 13.4628C2.41391 13.4628 2.75391 13.7399 2.75391 14.0739C2.75391 15.0843 3.76391 15.9073 5.00391 15.9073H5.35388C5.68388 14.9702 6.74391 14.2777 8.0039 14.2777C9.2639 14.2777 10.3239 14.9702 10.6539 15.9073H13.3639C13.6939 14.9702 14.7539 14.2777 16.0139 14.2777C17.2739 14.2777 18.3339 14.9702 18.6639 15.9073H19.0039C20.2439 15.9073 21.2539 15.0843 21.2539 14.0739V12.2406H19.0039C18.0439 12.2406 17.2539 11.5969 17.2539 10.8147V8.37024C17.2539 7.58802 18.0339 6.94432 19.0039 6.94432L17.9339 5.42062C17.7139 5.10284 17.2939 4.90728 16.8439 4.90728H15.7539V9.99987C15.7539 11.2384 14.5239 12.2406 13.0039 12.2406H12.0039C11.5939 12.2406 11.2539 11.9636 11.2539 11.6295C11.2539 11.2954 11.5939 11.0184 12.0039 11.0184H13.0039C13.6939 11.0184 14.2539 10.5621 14.2539 9.99987V4.29617C14.2539 3.9621 14.5939 3.68506 15.0039 3.68506H16.8439C17.8339 3.68506 18.7439 4.11692 19.2339 4.81766L20.9439 7.25395C21.0739 7.44136 21.0739 7.67766 20.9439 7.86506C20.8139 8.05247 20.5639 8.16654 20.2939 8.16654H19.0039C18.8639 8.16654 18.7539 8.25617 18.7539 8.37024V10.8147C18.7539 10.9288 18.8639 11.0184 19.0039 11.0184H22.0039C22.4139 11.0184 22.7539 11.2954 22.7539 11.6295V14.0739C22.7539 15.7606 21.0739 17.1295 19.0039 17.1295Z" fill="#BDC1DF"/>
<path d="M8 18.7593C6.48 18.7593 5.25 17.7571 5.25 16.5186C5.25 15.2801 6.48 14.2778 8 14.2778C9.52 14.2778 10.75 15.2801 10.75 16.5186C10.75 17.7571 9.52 18.7593 8 18.7593ZM8 15.5001C7.31 15.5001 6.75 15.9564 6.75 16.5186C6.75 17.0808 7.31 17.5371 8 17.5371C8.69 17.5371 9.25 17.0808 9.25 16.5186C9.25 15.9564 8.69 15.5001 8 15.5001Z" fill="#BDC1DF"/>
<path d="M16.0039 18.7593C14.4839 18.7593 13.2539 17.7571 13.2539 16.5186C13.2539 15.2801 14.4839 14.2778 16.0039 14.2778C17.5239 14.2778 18.7539 15.2801 18.7539 16.5186C18.7539 17.7571 17.5239 18.7593 16.0039 18.7593ZM16.0039 15.5001C15.3139 15.5001 14.7539 15.9564 14.7539 16.5186C14.7539 17.0808 15.3139 17.5371 16.0039 17.5371C16.6939 17.5371 17.2539 17.0808 17.2539 16.5186C17.2539 15.9564 16.6939 15.5001 16.0039 15.5001Z" fill="#BDC1DF"/>
<path d="M22 12.2406H19C18.04 12.2406 17.25 11.5969 17.25 10.8147V8.37026C17.25 7.58804 18.04 6.94434 19 6.94434H20.29C20.56 6.94434 20.81 7.05841 20.94 7.25397L22.65 9.69841C22.71 9.78804 22.75 9.89397 22.75 9.99989V11.6295C22.75 11.9636 22.41 12.2406 22 12.2406ZM19 8.16656C18.86 8.16656 18.75 8.25619 18.75 8.37026V10.8147C18.75 10.9288 18.86 11.0184 19 11.0184H21.25V10.1629L19.85 8.16656H19Z" fill="#BDC1DF"/>
<path d="M8.00391 7.35162H2.00391C1.59391 7.35162 1.25391 7.07458 1.25391 6.74051C1.25391 6.40643 1.59391 6.12939 2.00391 6.12939H8.00391C8.41391 6.12939 8.75391 6.40643 8.75391 6.74051C8.75391 7.07458 8.41391 7.35162 8.00391 7.35162Z" fill="#BDC1DF"/>
<path d="M6.00391 9.79644H2.00391C1.59391 9.79644 1.25391 9.5194 1.25391 9.18533C1.25391 8.85126 1.59391 8.57422 2.00391 8.57422H6.00391C6.41391 8.57422 6.75391 8.85126 6.75391 9.18533C6.75391 9.5194 6.41391 9.79644 6.00391 9.79644Z" fill="#BDC1DF"/>
<path d="M4.00391 12.2408H2.00391C1.59391 12.2408 1.25391 11.9637 1.25391 11.6297C1.25391 11.2956 1.59391 11.0186 2.00391 11.0186H4.00391C4.41391 11.0186 4.75391 11.2956 4.75391 11.6297C4.75391 11.9637 4.41391 12.2408 4.00391 12.2408Z" fill="#BDC1DF"/>
</svg>
