<svg width="24" height="25" viewBox="0 0 24 25" fill="none" xmlns="http://www.w3.org/2000/svg">
<path d="M11 2.65234H9C4 2.65234 2 4.65234 2 9.65234V15.6523C2 20.6523 4 22.6523 9 22.6523H15C20 22.6523 22 20.6523 22 15.6523V13.6523" stroke="#BDC1DF" stroke-linecap="round" stroke-linejoin="round"/>
<path d="M16.0399 3.6726L8.15988 11.5526C7.85988 11.8526 7.55988 12.4426 7.49988 12.8726L7.06988 15.8826C6.90988 16.9726 7.67988 17.7326 8.76988 17.5826L11.7799 17.1526C12.1999 17.0926 12.7899 16.7926 13.0999 16.4926L20.9799 8.6126C22.3399 7.2526 22.9799 5.6726 20.9799 3.6726C18.9799 1.6726 17.3999 2.3126 16.0399 3.6726V3.6726Z" stroke="#BDC1DF" stroke-miterlimit="10" stroke-linecap="round" stroke-linejoin="round"/>
<path d="M14.9102 4.80273C15.2417 5.9802 15.8701 7.0528 16.7351 7.91778C17.6001 8.78276 18.6727 9.41114 19.8502 9.74274" stroke="#BDC1DF" stroke-miterlimit="10" stroke-linecap="round" stroke-linejoin="round"/>
</svg>
