<svg width="25" height="24" viewBox="0 0 25 24" fill="none" xmlns="http://www.w3.org/2000/svg">
<path d="M12.8184 21.6496C12.5084 21.6496 12.2084 21.6096 11.9584 21.5196C8.13836 20.2096 2.06836 15.5596 2.06836 8.68961C2.06836 5.18961 4.89836 2.34961 8.37836 2.34961C10.0684 2.34961 11.6484 3.00961 12.8184 4.18961C13.9884 3.00961 15.5684 2.34961 17.2584 2.34961C20.7384 2.34961 23.5684 5.19961 23.5684 8.68961C23.5684 15.5696 17.4984 20.2096 13.6784 21.5196C13.4284 21.6096 13.1284 21.6496 12.8184 21.6496ZM8.37836 3.84961C5.72836 3.84961 3.56836 6.01961 3.56836 8.68961C3.56836 15.5196 10.1384 19.3196 12.4484 20.1096C12.6284 20.1696 13.0184 20.1696 13.1984 20.1096C15.4984 19.3196 22.0784 15.5296 22.0784 8.68961C22.0784 6.01961 19.9184 3.84961 17.2684 3.84961C15.7484 3.84961 14.3384 4.55961 13.4284 5.78961C13.1484 6.16961 12.5084 6.16961 12.2284 5.78961C11.2984 4.54961 9.89836 3.84961 8.37836 3.84961Z" fill="#5A6AE8"/>
</svg>
