<svg width="52" height="52" viewBox="0 0 52 52" fill="none" xmlns="http://www.w3.org/2000/svg">
<rect width="52" height="52" rx="26" fill="#EF233C" fill-opacity="0.05"/>
<path d="M30.3194 39.6933H30.146C24.226 39.6933 21.3727 37.36 20.8794 32.1333C20.826 31.5866 21.226 31.0933 21.786 31.04C22.3194 30.9866 22.826 31.4 22.8794 31.9466C23.266 36.1333 25.2394 37.6933 30.1594 37.6933H30.3327C35.7594 37.6933 37.6794 35.7733 37.6794 30.3466V21.6533C37.6794 16.2266 35.7594 14.3066 30.3327 14.3066H30.1594C25.2127 14.3066 23.2394 15.8933 22.8794 20.16C22.8127 20.7066 22.346 21.12 21.786 21.0666C21.226 21.0266 20.826 20.5333 20.866 19.9866C21.3194 14.68 24.186 12.3066 30.146 12.3066H30.3194C36.866 12.3066 39.666 15.1066 39.666 21.6533V30.3466C39.666 36.8933 36.866 39.6933 30.3194 39.6933Z" fill="#FF445B"/>
<path d="M30.0015 27H14.8281C14.2815 27 13.8281 26.5467 13.8281 26C13.8281 25.4533 14.2815 25 14.8281 25H30.0015C30.5481 25 31.0015 25.4533 31.0015 26C31.0015 26.5467 30.5481 27 30.0015 27Z" fill="#FF445B"/>
<path d="M17.7993 31.4671C17.5459 31.4671 17.2926 31.3738 17.0926 31.1738L12.6259 26.7071C12.2393 26.3204 12.2393 25.6804 12.6259 25.2938L17.0926 20.8271C17.4793 20.4404 18.1193 20.4404 18.5059 20.8271C18.8926 21.2138 18.8926 21.8538 18.5059 22.2404L14.7459 26.0004L18.5059 29.7604C18.8926 30.1471 18.8926 30.7871 18.5059 31.1738C18.3193 31.3738 18.0526 31.4671 17.7993 31.4671Z" fill="#FF445B"/>
</svg>
