<svg width="56" height="56" viewBox="0 0 56 56" fill="none" xmlns="http://www.w3.org/2000/svg">
<rect width="56" height="56" rx="28" fill="#F6F6FD"/>
<path d="M28.0046 42.3324C22.6712 42.3324 18.3379 38.5057 18.3379 33.7991V28.8657C18.3379 28.3191 18.7912 27.8657 19.3379 27.8657C19.8846 27.8657 20.3379 28.3191 20.3379 28.8657C20.3379 32.3591 23.6312 34.9991 28.0046 34.9991C32.3779 34.9991 35.6712 32.3591 35.6712 28.8657C35.6712 28.3191 36.1246 27.8657 36.6712 27.8657C37.2179 27.8657 37.6712 28.3191 37.6712 28.8657V33.7991C37.6712 38.5057 33.3379 42.3324 28.0046 42.3324ZM20.3379 33.9457C20.4312 37.4791 23.8312 40.3324 28.0046 40.3324C32.1779 40.3324 35.5779 37.4791 35.6712 33.9457C33.9379 35.8257 31.1912 36.9991 28.0046 36.9991C24.8179 36.9991 22.0846 35.8257 20.3379 33.9457Z" fill="#171717"/>
<path d="M28.0046 30.3322C24.3246 30.3322 21.0179 28.6789 19.4045 26.0122C18.7112 24.8789 18.3379 23.5589 18.3379 22.1989C18.3379 19.9055 19.3646 17.7455 21.2179 16.1189C23.0312 14.5322 25.4446 13.6655 28.0046 13.6655C30.5646 13.6655 32.9646 14.5322 34.7912 16.1055C36.6446 17.7455 37.6712 19.9055 37.6712 22.1989C37.6712 23.5589 37.2979 24.8655 36.6046 26.0122C34.9912 28.6789 31.6846 30.3322 28.0046 30.3322ZM28.0046 15.6655C25.9246 15.6655 23.9779 16.3589 22.5246 17.6389C21.1112 18.8655 20.3379 20.4922 20.3379 22.1989C20.3379 23.1989 20.6045 24.1322 21.1112 24.9722C22.3779 27.0522 25.0179 28.3322 28.0046 28.3322C30.9912 28.3322 33.6312 27.0389 34.8979 24.9722C35.4179 24.1322 35.6712 23.1989 35.6712 22.1989C35.6712 20.4922 34.8979 18.8655 33.4712 17.6122C32.0179 16.3589 30.0846 15.6655 28.0046 15.6655Z" fill="#171717"/>
<path d="M28.0046 36.9989C22.4979 36.9989 18.3379 33.5055 18.3379 28.8655V22.1989C18.3379 17.4922 22.6712 13.6655 28.0046 13.6655C30.5646 13.6655 32.9646 14.5322 34.7912 16.1055C36.6446 17.7455 37.6712 19.9055 37.6712 22.1989V28.8655C37.6712 33.5055 33.5112 36.9989 28.0046 36.9989ZM28.0046 15.6655C23.7779 15.6655 20.3379 18.5989 20.3379 22.1989V28.8655C20.3379 32.3589 23.6312 34.9989 28.0046 34.9989C32.3779 34.9989 35.6712 32.3589 35.6712 28.8655V22.1989C35.6712 20.4922 34.8979 18.8655 33.4712 17.6122C32.0179 16.3589 30.0846 15.6655 28.0046 15.6655Z" fill="#171717"/>
</svg>
