<svg width="22" height="22" viewBox="0 0 22 22" fill="none" xmlns="http://www.w3.org/2000/svg">
<path d="M10.75 1C5.41393 1 1.00014 5.00538 1 10.0098C1 12.5652 2.15202 14.9622 4.17383 16.6602L4.58984 16.9902L4.59375 16.9922C4.65326 17.0361 4.69043 17.1061 4.69043 17.1904V20.3252L5.43555 19.9062L7.6748 18.6455L7.68359 18.6406C7.72522 18.6162 7.79598 18.6037 7.87305 18.624V18.623C8.8041 18.8838 9.77659 19.0195 10.75 19.0195C16.0862 19.0195 20.5 15.0143 20.5 10.0098C20.4999 5.00538 16.0861 1 10.75 1ZM4.17969 17.3125L3.99512 17.1621C1.75614 15.3423 0.5 12.7618 0.5 10.0098C0.500142 4.79895 5.06211 0.5 10.75 0.5C16.4379 0.5 20.9999 4.79895 21 10.0098C21 15.2207 16.438 19.5195 10.75 19.5195C9.82128 19.5195 8.90301 19.405 8.01465 19.1758L7.82031 19.126L7.64453 19.2246L4.55469 20.9639L4.54297 20.9707L4.53125 20.9785C4.51739 20.9872 4.4852 21 4.42969 21C4.40386 21 4.38052 20.9976 4.35938 20.9922L4.30176 20.9678L4.2959 20.9648L4.25098 20.9297C4.20917 20.8875 4.17969 20.8248 4.17969 20.75V17.3125Z" stroke="white"/>
<path d="M11.5068 9.34277L11.6777 9.43262L11.8643 9.38477L13.8711 8.86914L11.376 11.8555L10.1914 11.168L10.0166 11.0664L9.82129 11.1143L7.61426 11.6523L10.1533 8.62988L11.5068 9.34277Z" stroke="white"/>
<path d="M10.1296 7.77832L10.1355 7.78223L11.5857 8.55176L11.7566 8.64258L11.9441 8.59473L15.1707 7.76465L15.1716 7.76562C15.258 7.74413 15.3377 7.76522 15.3943 7.81348L15.4421 7.87012C15.4898 7.94878 15.4951 8.03303 15.4666 8.10352L15.4275 8.16895L15.4265 8.16992L11.6658 12.6699L11.6638 12.6729C11.6006 12.7499 11.4857 12.7793 11.3904 12.7461L11.3513 12.7275L10.0613 11.9775L9.88745 11.877L9.69116 11.9248L6.3396 12.7422L6.33765 12.7432C6.32101 12.7445 6.30217 12.7461 6.29175 12.7471C6.26485 12.7495 6.2548 12.75 6.24976 12.75C6.16605 12.7499 6.07956 12.7034 6.03394 12.6338C5.98989 12.5571 5.98578 12.4757 6.01343 12.4072L6.05249 12.3418L9.82983 7.84375L9.83081 7.84473C9.89451 7.76994 9.97957 7.74213 10.0564 7.75391L10.1296 7.77832ZM9.82788 8.61816L7.90698 10.8984L6.91772 12.0732L8.40991 11.7061L9.82495 11.3564C9.85035 11.3551 9.87222 11.3548 9.88843 11.3535C9.92492 11.3506 9.93404 11.3506 9.94019 11.3506C9.96605 11.3506 9.98933 11.353 10.0105 11.3584L10.0681 11.3818L10.0691 11.3828L11.0691 11.9629L11.4343 12.1738L11.7039 11.8506L13.5642 9.62012L14.5515 8.43555L13.0564 8.81543L11.7966 9.13574L11.7859 9.13867C11.7465 9.14952 11.6822 9.14802 11.5964 9.1084L10.4441 8.49805L10.0876 8.30957L9.82788 8.61816Z" stroke="white"/>
</svg>
