<svg width="56" height="56" viewBox="0 0 56 56" fill="none" xmlns="http://www.w3.org/2000/svg">
<rect width="56" height="56" rx="28" fill="#F6F6FD"/>
<path d="M28.2115 27.4932C28.1715 27.4932 28.1448 27.4932 28.1048 27.4932C28.0381 27.4798 27.9448 27.4798 27.8648 27.4932C23.9981 27.3732 21.0781 24.3332 21.0781 20.5865C21.0781 16.7732 24.1848 13.6665 27.9981 13.6665C31.8115 13.6665 34.9181 16.7732 34.9181 20.5865C34.9048 24.3332 31.9715 27.3732 28.2515 27.4932C28.2381 27.4932 28.2248 27.4932 28.2115 27.4932ZM27.9981 15.6665C25.2915 15.6665 23.0781 17.8798 23.0781 20.5865C23.0781 23.2532 25.1581 25.3998 27.8115 25.4932C27.8781 25.4798 28.0648 25.4798 28.2381 25.4932C30.8515 25.3732 32.9048 23.2265 32.9181 20.5865C32.9181 17.8798 30.7048 15.6665 27.9981 15.6665Z" fill="#171717"/>
<path d="M28.2261 42.0668C25.6128 42.0668 22.9861 41.4002 20.9995 40.0668C19.1461 38.8402 18.1328 37.1602 18.1328 35.3335C18.1328 33.5068 19.1461 31.8135 20.9995 30.5735C24.9995 27.9202 31.4795 27.9202 35.4528 30.5735C37.2928 31.8002 38.3195 33.4802 38.3195 35.3068C38.3195 37.1335 37.3061 38.8268 35.4528 40.0668C33.4528 41.4002 30.8395 42.0668 28.2261 42.0668ZM22.1061 32.2535C20.8261 33.1068 20.1328 34.2002 20.1328 35.3468C20.1328 36.4802 20.8395 37.5735 22.1061 38.4135C25.4261 40.6402 31.0261 40.6402 34.3461 38.4135C35.6261 37.5602 36.3195 36.4668 36.3195 35.3202C36.3195 34.1868 35.6128 33.0935 34.3461 32.2535C31.0261 30.0402 25.4261 30.0402 22.1061 32.2535Z" fill="#171717"/>
</svg>
