<svg width="56" height="56" viewBox="0 0 56 56" fill="none" xmlns="http://www.w3.org/2000/svg">
<rect width="56" height="56" rx="28" fill="#F6F6FD"/>
<path d="M21.9998 22.2265V20.9332C21.9998 17.9332 24.4131 14.9865 27.4131 14.7065C28.2467 14.6246 29.0881 14.7181 29.8834 14.9811C30.6786 15.244 31.41 15.6705 32.0304 16.2332C32.6509 16.7959 33.1466 17.4822 33.4858 18.248C33.825 19.0139 34.0001 19.8422 33.9998 20.6798V22.5198M23.9998 41.3332H31.9998C37.3598 41.3332 38.3198 39.1865 38.5998 36.5732L39.5998 28.5732C39.9598 25.3198 39.0264 22.6665 33.3331 22.6665H22.6664C16.9731 22.6665 16.0398 25.3198 16.3998 28.5732L17.3998 36.5732C17.6798 39.1865 18.6398 41.3332 23.9998 41.3332Z" stroke="#171717" stroke-width="1.5" stroke-miterlimit="10" stroke-linecap="round" stroke-linejoin="round"/>
<path d="M32.6615 28H32.6748M23.3281 28H23.3388" stroke="#171717" stroke-width="1.5" stroke-linecap="round" stroke-linejoin="round"/>
</svg>
