<svg width="56" height="56" viewBox="0 0 56 56" fill="none" xmlns="http://www.w3.org/2000/svg">
<rect width="56" height="56" rx="28" fill="#F6F6FD"/>
<path d="M27.8631 20.5865V25.0265M27.8898 14.6665C22.9831 14.6665 19.0098 18.6398 19.0098 23.5465V26.3465C19.0098 27.2532 18.6365 28.6132 18.1698 29.3865L16.4765 32.2132C15.4365 33.9598 16.1565 35.9065 18.0765 36.5465C24.4515 38.6665 31.3414 38.6665 37.7165 36.5465C38.1371 36.4062 38.5209 36.1731 38.8394 35.8646C39.1579 35.556 39.403 35.1799 39.5566 34.7639C39.7102 34.3479 39.7684 33.9027 39.7268 33.4612C39.6852 33.0197 39.545 32.5932 39.3165 32.2132L37.6231 29.3865C37.1565 28.6132 36.7831 27.2398 36.7831 26.3465V23.5465C36.7698 18.6665 32.7698 14.6665 27.8898 14.6665Z" stroke="#171717" stroke-width="1.5" stroke-miterlimit="10" stroke-linecap="round"/>
<path d="M32.3038 37.0933C32.3038 39.5333 30.3038 41.5333 27.8638 41.5333C26.6505 41.5333 25.5305 41.0266 24.7305 40.2266C23.9305 39.4266 23.4238 38.3066 23.4238 37.0933" stroke="#171717" stroke-width="1.5" stroke-miterlimit="10"/>
</svg>
