<svg width="56" height="56" viewBox="0 0 56 56" fill="none" xmlns="http://www.w3.org/2000/svg">
<rect width="56" height="56" rx="28" fill="#F6F6FD"/>
<path d="M28 42.143C27.6032 42.1426 27.213 42.0407 26.8667 41.847L22.3733 39.351C20.1394 38.109 18.2779 36.2926 16.9816 34.0897C15.6852 31.8869 15.0011 29.3776 15 26.8216V19.8936C14.9999 19.3171 15.2137 18.7611 15.5998 18.333C15.986 17.905 16.5172 17.6354 17.0907 17.5763C18.8784 17.3868 20.6379 16.989 22.3333 16.391C23.8878 15.8415 25.3789 15.1272 26.7813 14.2603C27.1482 14.0358 27.5699 13.917 28 13.917C28.4301 13.917 28.8518 14.0358 29.2187 14.2603C30.6212 15.1269 32.1123 15.8412 33.6667 16.391C35.3621 16.989 37.1216 17.3868 38.9093 17.5763C39.4828 17.6354 40.014 17.905 40.4002 18.333C40.7863 18.7611 41.0001 19.3171 41 19.8936V26.8216C40.9989 29.3776 40.3148 31.8869 39.0184 34.0897C37.7221 36.2926 35.8606 38.109 33.6267 39.351L29.1333 41.8483C28.7869 42.0416 28.3967 42.1431 28 42.143ZM28 15.9163C27.9413 15.9158 27.8837 15.9315 27.8333 15.9616C26.3093 16.9036 24.689 17.68 23 18.2776C21.1577 18.9279 19.2455 19.3602 17.3027 19.5656C17.2201 19.5726 17.1432 19.6104 17.0872 19.6714C17.0312 19.7323 17 19.8121 17 19.895V26.823C17.0007 29.0223 17.5892 31.1815 18.7046 33.0771C19.82 34.9726 21.4217 36.5356 23.344 37.6043L27.8373 40.1003C27.8866 40.128 27.9422 40.1425 27.9987 40.1425C28.0552 40.1425 28.1107 40.128 28.16 40.1003L32.656 37.6043C34.5783 36.5356 36.18 34.9726 37.2954 33.0771C38.4108 31.1815 38.9993 29.0223 39 26.823V19.8936C39 19.8108 38.9688 19.731 38.9128 19.67C38.8568 19.609 38.7799 19.5713 38.6973 19.5643C36.7545 19.3588 34.8423 18.9265 33 18.2763C31.3111 17.6795 29.6908 16.904 28.1667 15.963C28.1166 15.9321 28.0588 15.9159 28 15.9163Z" fill="#171717"/>
<path d="M27.3335 31.0003C27.0885 31.0005 26.852 30.9103 26.6695 30.747L23.6695 28.0803C23.4834 27.9011 23.374 27.6569 23.364 27.3987C23.3541 27.1406 23.4444 26.8887 23.616 26.6957C23.7877 26.5026 24.0274 26.3835 24.2849 26.3633C24.5424 26.343 24.7977 26.4232 24.9975 26.587L27.2695 28.6057L31.6041 23.983C31.6934 23.885 31.8012 23.8057 31.9214 23.7497C32.0416 23.6938 32.1717 23.6623 32.3041 23.657C32.4366 23.6518 32.5687 23.673 32.693 23.7193C32.8172 23.7656 32.9309 23.8362 33.0276 23.9268C33.1243 24.0175 33.202 24.1265 33.2562 24.2475C33.3104 24.3685 33.34 24.499 33.3432 24.6316C33.3465 24.7641 33.3234 24.8959 33.2753 25.0194C33.2271 25.1429 33.1549 25.2556 33.0628 25.351L28.0628 30.6843C27.9694 30.7842 27.8565 30.8639 27.731 30.9182C27.6055 30.9726 27.4702 31.0005 27.3335 31.0003Z" fill="#171717"/>
</svg>
