<svg width="24" height="24" viewBox="0 0 24 24" fill="none" xmlns="http://www.w3.org/2000/svg">
<path d="M8.496 14.475L14.496 8.475M3.485 14.135L1.965 12.615C1.345 11.995 1.345 10.975 1.965 10.355L3.485 8.835C3.745 8.575 3.955 8.065 3.955 7.705V5.555C3.955 4.675 4.675 3.955 5.555 3.955H7.705C8.065 3.955 8.575 3.745 8.835 3.485L10.355 1.965C10.975 1.345 11.995 1.345 12.615 1.965L14.135 3.485C14.395 3.745 14.905 3.955 15.265 3.955H17.415C18.295 3.955 19.015 4.675 19.015 5.555V7.705C19.015 8.065 19.225 8.575 19.485 8.835L21.005 10.355C21.625 10.975 21.625 11.995 21.005 12.615L19.485 14.135C19.225 14.395 19.015 14.905 19.015 15.265V17.415C19.015 18.295 18.295 19.015 17.415 19.015H15.265C14.905 19.015 14.395 19.225 14.135 19.485L12.615 21.005C11.995 21.625 10.975 21.625 10.355 21.005L8.835 19.485C8.575 19.225 8.065 19.015 7.705 19.015H5.555C4.675 19.015 3.955 18.295 3.955 17.415V15.265C3.955 14.895 3.745 14.385 3.485 14.135Z" stroke="#BDC1DF" stroke-linecap="round" stroke-linejoin="round"/>
<path d="M13.9902 13.9751H13.9992M8.99023 8.9751H8.99823" stroke="#BDC1DF" stroke-width="1.2" stroke-linecap="round" stroke-linejoin="round"/>
</svg>
