<svg width="25" height="24" viewBox="0 0 25 24" fill="none" xmlns="http://www.w3.org/2000/svg">
<path d="M20.8921 13.0703C20.5121 13.0703 20.1921 12.7803 20.1421 12.4003C19.9021 10.1403 18.6821 8.09035 16.8021 6.79035C16.4621 6.55035 16.3821 6.09035 16.6121 5.75035C16.8521 5.41035 17.3221 5.33035 17.6521 5.56035C19.8921 7.11035 21.3321 9.55035 21.6221 12.2403C21.6621 12.6503 21.3721 13.0203 20.9521 13.0703C20.9421 13.0703 20.9121 13.0703 20.8921 13.0703Z" fill="#5A6AE8"/>
<path d="M3.76237 13.1203C3.73237 13.1203 3.71237 13.1203 3.68237 13.1203C3.27237 13.0703 2.97237 12.7003 3.01237 12.2903C3.28237 9.60026 4.71237 7.17026 6.92237 5.60026C7.26237 5.36026 7.73237 5.44026 7.97237 5.78026C8.21237 6.12026 8.13237 6.59026 7.79237 6.83026C5.93237 8.14026 4.73237 10.1903 4.50237 12.4503C4.47237 12.8303 4.14237 13.1203 3.76237 13.1203Z" fill="#5A6AE8"/>
<path d="M12.3324 22.61C10.8524 22.61 9.44243 22.27 8.12243 21.61C7.75243 21.42 7.60243 20.97 7.79243 20.6C7.98243 20.23 8.43243 20.08 8.80243 20.27C10.9624 21.36 13.5624 21.38 15.7424 20.33C16.1124 20.15 16.5624 20.31 16.7424 20.68C16.9224 21.05 16.7624 21.5 16.3924 21.68C15.1124 22.3 13.7524 22.61 12.3324 22.61Z" fill="#5A6AE8"/>
<path d="M12.3327 8.43988C10.3827 8.43988 8.80273 6.85988 8.80273 4.90988C8.80273 2.95988 10.3827 1.37988 12.3327 1.37988C14.2827 1.37988 15.8627 2.95988 15.8627 4.90988C15.8627 6.85988 14.2727 8.43988 12.3327 8.43988ZM12.3327 2.88988C11.2127 2.88988 10.3027 3.79988 10.3027 4.91988C10.3027 6.03988 11.2127 6.94988 12.3327 6.94988C13.4527 6.94988 14.3627 6.03988 14.3627 4.91988C14.3627 3.79988 13.4427 2.88988 12.3327 2.88988Z" fill="#5A6AE8"/>
<path d="M5.10227 20.6704C3.15227 20.6704 1.57227 19.0904 1.57227 17.1404C1.57227 15.2004 3.15227 13.6104 5.10227 13.6104C7.05227 13.6104 8.63226 15.1904 8.63226 17.1404C8.63226 19.0804 7.05227 20.6704 5.10227 20.6704ZM5.10227 15.1104C3.98227 15.1104 3.07227 16.0204 3.07227 17.1404C3.07227 18.2604 3.98227 19.1704 5.10227 19.1704C6.22227 19.1704 7.13227 18.2604 7.13227 17.1404C7.13227 16.0204 6.22227 15.1104 5.10227 15.1104Z" fill="#5A6AE8"/>
<path d="M19.4421 20.6704C17.4921 20.6704 15.9121 19.0904 15.9121 17.1404C15.9121 15.2004 17.4921 13.6104 19.4421 13.6104C21.3921 13.6104 22.9721 15.1904 22.9721 17.1404C22.9621 19.0804 21.3821 20.6704 19.4421 20.6704ZM19.4421 15.1104C18.3221 15.1104 17.4121 16.0204 17.4121 17.1404C17.4121 18.2604 18.3221 19.1704 19.4421 19.1704C20.5621 19.1704 21.4721 18.2604 21.4721 17.1404C21.4621 16.0204 20.5621 15.1104 19.4421 15.1104Z" fill="#5A6AE8"/>
</svg>
