<svg width="56" height="56" viewBox="0 0 56 56" fill="none" xmlns="http://www.w3.org/2000/svg">
<rect width="56" height="56" rx="28" fill="#F6F6FD"/>
<path d="M29.332 25H21.332C20.7854 25 20.332 24.5467 20.332 24C20.332 23.4533 20.7854 23 21.332 23H29.332C29.8787 23 30.332 23.4533 30.332 24C30.332 24.5467 29.8787 25 29.332 25Z" fill="#292D32"/>
<path d="M37.3852 31.7337C35.3719 31.7337 33.6652 30.2404 33.5052 28.3204C33.3986 27.2137 33.7986 26.1338 34.5986 25.3471C35.2653 24.6538 36.2119 24.2671 37.2119 24.2671H39.9986C41.3186 24.3071 42.3319 25.347 42.3319 26.627V29.3738C42.3319 30.6538 41.3186 31.6937 40.0386 31.7337H37.3852ZM39.9585 26.2671H37.2252C36.7586 26.2671 36.3319 26.4404 36.0253 26.7604C35.6386 27.1338 35.4519 27.6404 35.5052 28.1471C35.5719 29.0271 36.4252 29.7337 37.3852 29.7337H39.9986C40.1719 29.7337 40.3319 29.5738 40.3319 29.3738V26.627C40.3319 26.427 40.1719 26.2804 39.9585 26.2671Z" fill="#292D32"/>
<path d="M33.3346 40.3332H21.3346C16.748 40.3332 13.668 37.2532 13.668 32.6665V23.3332C13.668 19.2265 16.2013 16.2532 20.1346 15.7598C20.4946 15.7065 20.908 15.6665 21.3346 15.6665H33.3346C33.6546 15.6665 34.068 15.6798 34.4946 15.7465C38.428 16.1998 41.0013 19.1865 41.0013 23.3332V25.2665C41.0013 25.8132 40.548 26.2665 40.0013 26.2665H37.2279C36.7613 26.2665 36.3347 26.4398 36.028 26.7598L36.0146 26.7732C35.6413 27.1332 35.468 27.6265 35.508 28.1331C35.5746 29.0131 36.4279 29.7198 37.3879 29.7198H40.0013C40.548 29.7198 41.0013 30.1731 41.0013 30.7198V32.6532C41.0013 37.2532 37.9213 40.3332 33.3346 40.3332ZM21.3346 17.6665C21.0146 17.6665 20.708 17.6932 20.4013 17.7332C17.468 18.1065 15.668 20.2398 15.668 23.3332V32.6665C15.668 36.1065 17.8946 38.3332 21.3346 38.3332H33.3346C36.7746 38.3332 39.0013 36.1065 39.0013 32.6665V31.7332H37.3879C35.3746 31.7332 33.668 30.2398 33.508 28.3198C33.4013 27.2265 33.8013 26.1332 34.6013 25.3599C35.2947 24.6532 36.2279 24.2665 37.2279 24.2665H39.0013V23.3332C39.0013 20.2132 37.1746 18.0665 34.2146 17.7198C33.8946 17.6665 33.6146 17.6665 33.3346 17.6665H21.3346Z" fill="#292D32"/>
</svg>
