<svg width="56" height="56" viewBox="0 0 56 56" fill="none" xmlns="http://www.w3.org/2000/svg">
<rect width="56" height="56" rx="28" fill="#F6F6FD"/>
<path d="M28.3333 40.7333C27.92 40.7333 27.52 40.68 27.1867 40.56C22.0933 38.8133 14 32.6133 14 23.4533C14 18.7867 17.7733 15 22.4133 15C24.6667 15 26.7733 15.88 28.3333 17.4533C29.8933 15.88 32 15 34.2533 15C38.8933 15 42.6667 18.8 42.6667 23.4533C42.6667 32.6267 34.5733 38.8133 29.48 40.56C29.1467 40.68 28.7467 40.7333 28.3333 40.7333ZM22.4133 17C18.88 17 16 19.8933 16 23.4533C16 32.56 24.76 37.6267 27.84 38.68C28.08 38.76 28.6 38.76 28.84 38.68C31.9067 37.6267 40.68 32.5733 40.68 23.4533C40.68 19.8933 37.8 17 34.2667 17C32.24 17 30.36 17.9467 29.1467 19.5867C28.7733 20.0933 27.92 20.0933 27.5467 19.5867C26.3067 17.9333 24.44 17 22.4133 17Z" fill="#171717"/>
</svg>
